<svg id="Layer_1" data-name="Layer 1" xmlns="http://www.w3.org/2000/svg" viewBox="0 0 1200 1200"><defs><style>.cls-1{fill:#5ca300;}.cls-2{fill:#a7a9ac;}.cls-3{fill:#0b7406;}.cls-4{fill:#020202;}</style></defs><path class="cls-1" d="M300.92028,515.95621s4.00718,19.86239,28.17547,34.87241,98.61414,59.06958,44.51724,137.484c0,0,44.89292-82.87857-48.274-126.93814,0,0,46.95912,32.99615,46.01994,78.41438C371.359,639.78883,287.77173,608.73363,300.92028,515.95621Z"/><path class="cls-1" d="M373.613,688.31259s75.13606-17.355,81.58364-100.47652c5.25942-67.80386-38.31864-93.16561-22.28993-154.75843,0,0-86.90567,81.13172-22.28992,197.97692,0,0,38.56908-48.13557,11.52063-126.03236C422.13741,505.0222,493.39,619.27946,373.613,688.31259Z"/><polygon class="cls-1" points="900.483 589.607 900.483 741.465 889.513 741.465 889.513 598.746 875.473 592.857 669.373 506.327 494.293 593.397 466.023 593.397 669.033 492.436 899.123 589.037 900.483 589.607"/><rect class="cls-2" x="651.45065" y="539.781" width="16.6768" height="16.6768"/><rect class="cls-2" x="675.28634" y="539.781" width="16.6768" height="16.6768"/><rect class="cls-2" x="651.45065" y="563.16122" width="16.6768" height="16.6768"/><rect class="cls-2" x="675.28634" y="563.16122" width="16.6768" height="16.6768"/><path class="cls-1" d="M356.33151,679.62359a33.50642,33.50642,0,0,1-23.78367,9.58016q-13.64684,0-22.55822-8.41057-8.91324-8.40931-8.91158-22.55822,0-14.14515,9.07873-22.50237a30.62067,30.62067,0,0,1,21.44406-8.35471q12.36513,0,20.99849,7.46355,8.6319,7.46523,8.63356,20.49747v8.91158h-43.668a11.90785,11.90785,0,0,0,5.12437,8.02043,16.38845,16.38845,0,0,0,9.80274,3.11947,19.22468,19.22468,0,0,0,14.48194-5.90382ZM340.28983,644.0873a12.65844,12.65844,0,0,0-8.41056-2.89605,15.055,15.055,0,0,0-9.07873,3.00776,11.50262,11.50262,0,0,0-4.79008,8.13213h26.29A11.8741,11.8741,0,0,0,340.28983,644.0873Z"/><path class="cls-1" d="M495.13126,679.62359a33.50644,33.50644,0,0,1-23.78367,9.58016q-13.64685,0-22.55822-8.41057-8.91324-8.40931-8.91158-22.55822,0-14.14515,9.07873-22.50237a30.62067,30.62067,0,0,1,21.44406-8.35471q12.36513,0,20.99849,7.46355,8.63189,7.46523,8.63356,20.49747v8.91158h-43.668a11.90782,11.90782,0,0,0,5.12437,8.02043,16.38845,16.38845,0,0,0,9.80274,3.11947,19.22468,19.22468,0,0,0,14.48194-5.90382ZM479.08958,644.0873a12.65846,12.65846,0,0,0-8.41056-2.89605,15.05493,15.05493,0,0,0-9.07873,3.00776,11.50262,11.50262,0,0,0-4.79008,8.13213h26.29A11.8741,11.8741,0,0,0,479.08958,644.0873Z"/><path class="cls-1" d="M543.58892,643.08527q-7.4646,0-11.13948,5.2911-3.67633,5.29192-3.67634,13.98009v25.95613H512.06326V628.38075H528.7731v7.90871a28.07963,28.07963,0,0,1,8.07628-6.2381,21.96743,21.96743,0,0,1,9.859-2.67348l.11129,15.70739Z"/><path class="cls-3" d="M602.184,678.17556a25.36322,25.36322,0,0,1-19.66175,8.79987,27.14766,27.14766,0,0,1-19.82889-7.96457q-8.07794-7.9629-8.07628-21.27692,0-13.31109,8.29928-21.83379,8.2974-8.52311,18.99317-8.52227,10.69452,0,17.71229,8.80071V628.269h16.70984v52.24571a34.66426,34.66426,0,0,1-2.78518,14.25852,24.6438,24.6438,0,0,1-7.46356,9.80358,34.02763,34.02763,0,0,1-21.8342,7.35184,45.66833,45.66833,0,0,1-13.64623-2.17162,38.91533,38.91533,0,0,1-12.19778-6.18309l6.46111-12.58792a28.43027,28.43027,0,0,0,17.43344,6.23811q9.19085,0,14.53779-4.56667Q602.184,688.08834,602.184,678.17556Zm-2.33918-21.11019q0-7.18512-4.01063-11.30662a13.28712,13.28712,0,0,0-9.91445-4.12234,14.208,14.208,0,0,0-10.19288,4.12234q-4.28969,4.12275-4.28865,11.25076,0,7.1301,4.17736,11.53a13.51675,13.51675,0,0,0,10.19288,4.39993,13.07742,13.07742,0,0,0,10.02574-4.34408Q599.845,664.25007,599.84484,657.06537Z"/><path class="cls-3" d="M663.67518,643.08527q-7.46521,0-11.13989,5.2911-3.67635,5.29192-3.67634,13.98009v25.95613H632.14953V628.38075H648.859v7.90871a28.07945,28.07945,0,0,1,8.07627-6.2381,21.96439,21.96439,0,0,1,9.8586-2.67348l.1117,15.70739Z"/><path class="cls-3" d="M729.84513,679.62359a33.50644,33.50644,0,0,1-23.78367,9.58016q-13.64746,0-22.55822-8.41057-8.91326-8.40931-8.91158-22.55822,0-14.14515,9.07914-22.50237a30.619,30.619,0,0,1,21.44365-8.35471q12.36576,0,20.99848,7.46355,8.6319,7.46523,8.63315,20.49747v8.91158H691.0785a11.90635,11.90635,0,0,0,5.12437,8.02043,16.38752,16.38752,0,0,0,9.80274,3.11947,19.22341,19.22341,0,0,0,14.48194-5.90382ZM713.80345,644.0873a12.65846,12.65846,0,0,0-8.41057-2.89605,15.057,15.057,0,0,0-9.07914,3.00776,11.5068,11.5068,0,0,0-4.79008,8.13213h26.29042A11.87578,11.87578,0,0,0,713.80345,644.0873Z"/><path class="cls-3" d="M798.68855,679.62359a33.50644,33.50644,0,0,1-23.78367,9.58016q-13.64747,0-22.55822-8.41057-8.91324-8.40931-8.91158-22.55822,0-14.14515,9.07914-22.50237a30.619,30.619,0,0,1,21.44365-8.35471q12.36576,0,20.99849,7.46355,8.63189,7.46523,8.63314,20.49747v8.91158H759.92192a11.90635,11.90635,0,0,0,5.12437,8.02043,16.38752,16.38752,0,0,0,9.80274,3.11947,19.22341,19.22341,0,0,0,14.48194-5.90382ZM782.64687,644.0873a12.65846,12.65846,0,0,0-8.41056-2.89605,15.057,15.057,0,0,0-9.07915,3.00776,11.50683,11.50683,0,0,0-4.79008,8.13213H786.6575A11.87578,11.87578,0,0,0,782.64687,644.0873Z"/><path class="cls-3" d="M832.33081,654.89291v33.41968H815.62139V628.38075h16.70942V635.064q7.574-7.68655,17.04371-7.68614a21.102,21.102,0,0,1,15.87412,6.6841q6.40484,6.68369,6.40567,17.82317v36.42744H854.94488V654.44775q0-13.81254-10.13786-13.81337a12.15892,12.15892,0,0,0-8.744,3.62048Q832.32914,647.87619,832.33081,654.89291Z"/><path class="cls-4" d="M620.72559,700.73826h5.08691v12.28418h5.457V700.73826h5.08692v30.17188h-5.08692V717.333h-5.457v13.57715h-5.08691Z"/><path class="cls-4" d="M643.61621,729.35838a7.56175,7.56175,0,0,1-1.98828-5.60352V707.89354a7.56328,7.56328,0,0,1,1.98828-5.60352,9.28346,9.28346,0,0,1,11.46777,0,7.56762,7.56762,0,0,1,1.98926,5.60352v15.86132a7.56609,7.56609,0,0,1-1.98926,5.60352,9.28346,9.28346,0,0,1-11.46777,0Zm8.37012-5.30176V707.59178q0-2.97363-2.63574-2.97363-2.63673,0-2.63672,2.97363v16.46484q0,2.9751,2.63672,2.97461Q651.98584,727.03123,651.98633,724.05662Z"/><path class="cls-4" d="M662.34375,700.73826h7.26074L672.8418,722.333h.09179l3.23731-21.59473h7.26074v30.17188h-4.80957V708.06639h-.09277l-3.69922,22.84375H670.5752L666.876,708.06639h-.09278v22.84375h-4.43945Z"/><path class="cls-4" d="M689.07227,700.73826h13.873v4.31055h-8.78613v7.97363h6.9834V717.333h-6.9834v9.2666h8.78613v4.31055h-13.873Z"/><path class="cls-4" d="M718.71387,729.37986a7.65385,7.65385,0,0,1-1.94239-5.625v-23.0166h5.08692v23.36133a3.13576,3.13576,0,0,0,.6709,2.24219,3.01522,3.01522,0,0,0,3.83789,0,3.14033,3.14033,0,0,0,.66992-2.24219V700.73826h4.90234v23.0166a7.9834,7.9834,0,0,1-13.22558,5.625Z"/><path class="cls-4" d="M737.39551,700.73826h7.49219q3.791,0,5.6875,1.89649a7.54026,7.54026,0,0,1,1.89648,5.56054v2.97364a7.53719,7.53719,0,0,1-1.89648,5.56054q-1.897,1.897-5.6875,1.89649h-2.40528v12.28418h-5.08691Zm7.49219,13.57715a2.48628,2.48628,0,0,0,1.87207-.64648,3.11253,3.11253,0,0,0,.625-2.19825v-3.57714a3.11417,3.11417,0,0,0-.625-2.19825,2.49012,2.49012,0,0,0-1.87207-.64648h-2.40528v9.2666Z"/><path class="cls-4" d="M758.667,729.37986a7.65752,7.65752,0,0,1-1.9414-5.625V707.89354a7.602,7.602,0,1,1,15.167,0v2.58593H767.084v-2.88769q0-2.97363-2.63574-2.97363-2.63672,0-2.63672,2.97363v16.50781q0,2.93262,2.63672,2.93164,2.63526,0,2.63574-2.93164v-5.9043H764.54v-4.31054h7.35254v9.87011a7.98337,7.98337,0,0,1-13.22559,5.625Z"/><path class="cls-4" d="M777.02441,700.73826h7.53809q3.93018,0,5.73438,1.70313,1.80321,1.70214,1.80371,5.23633v1.85351q0,4.69921-3.33008,5.94824v.08594a3.90288,3.90288,0,0,1,2.61328,2.11231,9.99271,9.99271,0,0,1,.76269,4.26757v5.30078a18.68692,18.68692,0,0,0,.09278,2.09083,4.95226,4.95226,0,0,0,.46191,1.57324h-5.17871a6.48655,6.48655,0,0,1-.37012-1.37891,19.16441,19.16441,0,0,1-.09277-2.32812V721.6865a4.43758,4.43758,0,0,0-.7168-2.88769,3.15874,3.15874,0,0,0-2.47363-.81934h-1.75781v12.93067h-5.08692Zm6.93653,12.93067a3.18366,3.18366,0,0,0,2.28906-.73243,3.30462,3.30462,0,0,0,.76367-2.457v-2.32715a3.632,3.632,0,0,0-.625-2.37109,2.44386,2.44386,0,0,0-1.96484-.73242h-2.3125v8.62012Z"/><path class="cls-4" d="M801.44141,700.73826H808.332l5.27149,30.17188h-5.08594l-.92578-5.99121v.08593h-5.78028l-.9248,5.90528h-4.7168Zm5.5498,20.17188L804.72559,705.997h-.09278l-2.21972,14.91309Z"/><path class="cls-4" d="M817.90332,700.73826h7.76953q3.791,0,5.6875,1.89649a7.54026,7.54026,0,0,1,1.89649,5.56054v15.25782a7.53719,7.53719,0,0,1-1.89649,5.56054q-1.897,1.897-5.6875,1.89649h-7.76953Zm7.67676,25.86133a2.55427,2.55427,0,0,0,1.91894-.68945,3.13308,3.13308,0,0,0,.6709-2.24121V707.97947a3.13468,3.13468,0,0,0-.6709-2.24121,2.55807,2.55807,0,0,0-1.91894-.68945h-2.58985v21.55078Z"/><path class="cls-4" d="M838.52734,700.73826h13.87305v4.31055h-8.78613v7.97363h6.9834V717.333h-6.9834v9.2666h8.78613v4.31055H838.52734Z"/><path class="cls-4" d="M858.27344,729.37986a7.76408,7.76408,0,0,1-1.89551-5.625v-1.72363h4.80859v2.06836q0,2.93262,2.63672,2.93164a2.57247,2.57247,0,0,0,1.96485-.71191,3.29333,3.29333,0,0,0,.67089-2.30567,6.06063,6.06063,0,0,0-.9248-3.33984,16.41882,16.41882,0,0,0-3.42188-3.46973,19.5311,19.5311,0,0,1-4.39355-4.67676,9.0291,9.0291,0,0,1-1.249-4.71972,6.81363,6.81363,0,0,1,7.584-7.5,7.29455,7.29455,0,0,1,5.52637,1.96094,7.82754,7.82754,0,0,1,1.87305,5.625v1.25h-4.80958v-1.55176a3.29613,3.29613,0,0,0-.64746-2.2627,2.43233,2.43233,0,0,0-1.8955-.71093q-2.54444,0-2.54395,2.88769a5.41455,5.41455,0,0,0,.94824,3.05957,17.36734,17.36734,0,0,0,3.44532,3.44824,18.17816,18.17816,0,0,1,4.39257,4.69825,9.84942,9.84942,0,0,1,1.20313,4.957,6.90569,6.90569,0,0,1-7.67676,7.67187A7.435,7.435,0,0,1,858.27344,729.37986Z"/><path class="cls-3" d="M302.59846,765.36767a6.43556,6.43556,0,0,1-1.40039-4.458v-1.36621h3.55274v1.63965q0,2.32325,1.94726,2.32324a1.83281,1.83281,0,0,0,1.45215-.56445,2.744,2.744,0,0,0,.49512-1.82715,5.06862,5.06862,0,0,0-.6836-2.64746,12.63316,12.63316,0,0,0-2.52832-2.751,15.1315,15.1315,0,0,1-3.24511-3.70605,7.55545,7.55545,0,0,1-.92188-3.74121,6.23224,6.23224,0,0,1,1.43457-4.38965,5.39126,5.39126,0,0,1,4.168-1.55469,5.18022,5.18022,0,0,1,4.082,1.55469,6.48956,6.48956,0,0,1,1.38379,4.458v.99121h-3.55273v-1.23047a2.74957,2.74957,0,0,0-.47852-1.793,1.73464,1.73464,0,0,0-1.40039-.56348q-1.87939,0-1.87891,2.28809a4.51271,4.51271,0,0,0,.7002,2.42578,13.37949,13.37949,0,0,0,2.54492,2.7334,14.04822,14.04822,0,0,1,3.24512,3.72363,8.25893,8.25893,0,0,1,.88867,3.92871,6.41058,6.41058,0,0,1-1.45215,4.50977,5.45878,5.45878,0,0,1-4.21875,1.57129A5.27719,5.27719,0,0,1,302.59846,765.36767Z"/><path class="cls-3" d="M317.80061,765.35107a6.25791,6.25791,0,0,1-1.46973-4.44141V748.3374a6.25791,6.25791,0,0,1,1.46973-4.44141,6.49507,6.49507,0,0,1,8.47168,0,6.25791,6.25791,0,0,1,1.46973,4.44141v12.57226a6.25791,6.25791,0,0,1-1.46973,4.44141,6.49507,6.49507,0,0,1-8.47168,0Zm6.1836-4.20215V748.09814q0-2.35693-1.94727-2.35645-1.94824,0-1.94727,2.35645v13.05078q0,2.35693,1.94727,2.35742Q323.98371,763.50634,323.98421,761.14892Z"/><path class="cls-3" d="M332.31917,742.6665H336.077v20.498h6.18359v3.416h-9.9414Z"/><path class="cls-3" d="M349.16194,742.6665h5.08984l3.89453,23.91406H354.3885l-.68262-4.749v.06836h-4.2705l-.6836,4.68066h-3.48437Zm4.09961,15.98828-1.67383-11.82031h-.06836l-1.64062,11.82031Z"/><path class="cls-3" d="M362.00569,742.6665h5.56836a4.80587,4.80587,0,0,1,5.56933,5.5v1.46972q0,3.72365-2.46,4.71387v.06836a2.93463,2.93463,0,0,1,1.92969,1.67383,8.428,8.428,0,0,1,.56445,3.38281v4.20117a15.96588,15.96588,0,0,0,.06836,1.65723,4.15243,4.15243,0,0,0,.34082,1.24707h-3.82617a5.42656,5.42656,0,0,1-.27246-1.09277,16.37229,16.37229,0,0,1-.06836-1.84571V759.27a3.70607,3.70607,0,0,0-.53027-2.28906,2.24,2.24,0,0,0-1.82715-.64941H365.7635v10.249h-3.75781Zm5.125,10.249a2.25179,2.25179,0,0,0,1.69043-.58105,2.74217,2.74217,0,0,0,.56445-1.94727v-1.84473a3.03519,3.03519,0,0,0-.46191-1.8789,1.74245,1.74245,0,0,0-1.45117-.58106h-1.709v6.833Z"/><path class="cls-3" d="M384.7928,752.91552h7.51562v3.416H384.7928Z"/><path class="cls-3" d="M404.12776,742.6665h5.56836a4.80588,4.80588,0,0,1,5.56934,5.5v1.46972q0,3.72365-2.46,4.71387v.06836a2.93463,2.93463,0,0,1,1.92969,1.67383,8.428,8.428,0,0,1,.56445,3.38281v4.20117a15.96588,15.96588,0,0,0,.06836,1.65723,4.15243,4.15243,0,0,0,.34082,1.24707h-3.82617a5.42656,5.42656,0,0,1-.27246-1.09277,16.37229,16.37229,0,0,1-.06836-1.84571V759.27a3.70607,3.70607,0,0,0-.53027-2.28906,2.24,2.24,0,0,0-1.82715-.64941h-1.29883v10.249h-3.75781Zm5.125,10.249a2.25179,2.25179,0,0,0,1.69043-.58105,2.74217,2.74217,0,0,0,.56445-1.94727v-1.84473a3.03519,3.03519,0,0,0-.46191-1.8789,1.74245,1.74245,0,0,0-1.45117-.58106h-1.709v6.833Z"/><path class="cls-3" d="M421.14143,765.35107a6.2579,6.2579,0,0,1-1.46972-4.44141V748.3374a6.2579,6.2579,0,0,1,1.46972-4.44141,6.49507,6.49507,0,0,1,8.47168,0,6.25791,6.25791,0,0,1,1.46973,4.44141v12.57226a6.25791,6.25791,0,0,1-1.46973,4.44141,6.49507,6.49507,0,0,1-8.47168,0Zm6.1836-4.20215V748.09814q0-2.35693-1.94727-2.35645-1.94824,0-1.94727,2.35645v13.05078q0,2.35693,1.94727,2.35742Q427.32454,763.50634,427.325,761.14892Z"/><path class="cls-3" d="M436.85628,765.35107a6.25786,6.25786,0,0,1-1.46973-4.44141V748.3374a6.25786,6.25786,0,0,1,1.46973-4.44141,6.49507,6.49507,0,0,1,8.47168,0,6.2579,6.2579,0,0,1,1.46972,4.44141v12.57226a6.2579,6.2579,0,0,1-1.46972,4.44141,6.49507,6.49507,0,0,1-8.47168,0Zm6.18359-4.20215V748.09814q0-2.35693-1.94727-2.35645-1.94823,0-1.94726,2.35645v13.05078q0,2.35693,1.94726,2.35742Q443.03939,763.50634,443.03987,761.14892Z"/><path class="cls-3" d="M451.37483,742.6665h9.94141v3.416h-6.1836v6.66211h4.85157v3.416h-4.85157v10.41992h-3.75781Z"/><path class="cls-3" d="M465.17561,742.6665h3.75781v23.91406h-3.75781Z"/><path class="cls-3" d="M473.785,742.6665h4.71484L482.1551,756.981h.06836V742.6665h3.34766v23.91406h-3.86035l-4.50879-17.457h-.06836v17.457H473.785Z"/><path class="cls-3" d="M491.58381,765.36767a6.33747,6.33747,0,0,1-1.43554-4.458V748.3374a6.33747,6.33747,0,0,1,1.43554-4.458,6.363,6.363,0,0,1,8.335,0,6.33747,6.33747,0,0,1,1.43554,4.458v2.0498h-3.55273v-2.28906q0-2.35693-1.94727-2.35645-1.94824,0-1.94726,2.35645v13.085q0,2.32325,1.94726,2.32324,1.94678,0,1.94727-2.32324v-4.68067h-1.87891v-3.416h5.43164v7.82324a6.33747,6.33747,0,0,1-1.43554,4.458,6.363,6.363,0,0,1-8.335,0Z"/><path class="cls-3" d="M512.79768,752.91552h7.51563v3.416h-7.51563Z"/><path class="cls-3" d="M532.13264,742.6665h3.75782v9.73633h4.03125V742.6665h3.75781v23.91406h-3.75781V755.81884h-4.03125v10.76172h-3.75782Z"/><path class="cls-3" d="M547.54085,742.6665h3.792l2.46,18.55078h.06836l2.459-18.55078h3.45117l-3.62207,23.91406h-4.9873Z"/><path class="cls-3" d="M565.578,742.6665h5.08984l3.89453,23.91406h-3.75781l-.68262-4.749v.06836h-4.27051l-.68359,4.68066h-3.48438Zm4.0996,15.98828-1.67382-11.82031h-.06836l-1.64063,11.82031Z"/><path class="cls-3" d="M579.533,765.38525a6.16624,6.16624,0,0,1-1.418-4.33887v-12.8457a6.16624,6.16624,0,0,1,1.418-4.33887,6.28124,6.28124,0,0,1,8.2334,0,6.16624,6.16624,0,0,1,1.418,4.33887V750.729h-3.55273v-2.76758q0-2.21923-1.87891-2.21973-1.8794,0-1.87891,2.21973v13.3584q0,2.18554,1.87891,2.18652,1.87793,0,1.87891-2.18652v-3.65528h3.55273v3.38184a6.16624,6.16624,0,0,1-1.418,4.33887,6.28124,6.28124,0,0,1-8.2334,0Z"/><path class="cls-3" d="M600.45784,752.91552h7.51562v3.416h-7.51562Z"/><path class="cls-3" d="M618.9051,742.6665h3.6211L624.2,761.04638h.06835l1.77637-18.37988h4.09961l1.77637,18.37988h.06836l1.67383-18.37988H636.909l-2.42578,23.91406h-4.68067l-1.708-16.125h-.06836l-1.708,16.125h-4.98731Z"/><path class="cls-3" d="M640.87092,742.6665h3.75782v23.91406h-3.75782Z"/><path class="cls-3" d="M649.47932,742.6665h4.71485l3.65527,14.31445h.06836V742.6665h3.34766v23.91406H657.4051l-4.50879-17.457H652.828v17.457h-3.34864Z"/><path class="cls-3" d="M666.116,742.6665h5.73926a5.474,5.474,0,0,1,4.20215,1.50293,6.24657,6.24657,0,0,1,1.40136,4.40722V760.6704a6.24331,6.24331,0,0,1-1.40136,4.40723,5.474,5.474,0,0,1-4.20215,1.50293H666.116Zm5.6709,20.498a1.816,1.816,0,0,0,1.418-.54687A2.6091,2.6091,0,0,0,673.7,760.8413V748.40575a2.60909,2.60909,0,0,0-.49512-1.77636,1.816,1.816,0,0,0-1.418-.54688h-1.91309v17.082Z"/><path class="cls-3" d="M683.23128,765.35107a6.25786,6.25786,0,0,1-1.46973-4.44141V748.3374a6.25786,6.25786,0,0,1,1.46973-4.44141,6.49507,6.49507,0,0,1,8.47168,0,6.2579,6.2579,0,0,1,1.46972,4.44141v12.57226a6.2579,6.2579,0,0,1-1.46972,4.44141,6.49507,6.49507,0,0,1-8.47168,0Zm6.18359-4.20215V748.09814q0-2.35693-1.94727-2.35645-1.94823,0-1.94726,2.35645v13.05078q0,2.35693,1.94726,2.35742Q689.41439,763.50634,689.41487,761.14892Z"/><path class="cls-3" d="M696.86213,742.6665h3.6211l1.67383,18.37988h.06836l1.77636-18.37988h4.09961l1.77637,18.37988h.06836L711.62,742.6665H714.866l-2.42578,23.91406H707.7596l-1.708-16.125h-.06836l-1.708,16.125h-4.9873Z"/><path class="cls-3" d="M719.57991,765.36767a6.43556,6.43556,0,0,1-1.40039-4.458v-1.36621h3.55273v1.63965q0,2.32325,1.94727,2.32324a1.83282,1.83282,0,0,0,1.45215-.56445,2.744,2.744,0,0,0,.49511-1.82715,5.06861,5.06861,0,0,0-.68359-2.64746,12.63342,12.63342,0,0,0-2.52832-2.751,15.13158,15.13158,0,0,1-3.24512-3.70605,7.55556,7.55556,0,0,1-.92187-3.74121,6.23224,6.23224,0,0,1,1.43457-4.38965,5.39123,5.39123,0,0,1,4.168-1.55469,5.18025,5.18025,0,0,1,4.082,1.55469,6.48956,6.48956,0,0,1,1.38379,4.458v.99121H725.7635v-1.23047a2.74958,2.74958,0,0,0-.47851-1.793,1.73467,1.73467,0,0,0-1.40039-.56348q-1.8794,0-1.87891,2.28809a4.51278,4.51278,0,0,0,.70019,2.42578,13.37931,13.37931,0,0,0,2.54493,2.7334,14.048,14.048,0,0,1,3.24511,3.72363,8.25881,8.25881,0,0,1,.88868,3.92871,6.41063,6.41063,0,0,1-1.45215,4.50977,5.45881,5.45881,0,0,1-4.21875,1.57129A5.27716,5.27716,0,0,1,719.57991,765.36767Z"/><path class="cls-3" d="M744.00569,742.6665h5.08984l3.89453,23.91406h-3.75781l-.68262-4.749v.06836h-4.2705l-.6836,4.68066h-3.48437Zm4.09961,15.98828-1.67383-11.82031h-.06836l-1.64062,11.82031Z"/><path class="cls-3" d="M756.85042,742.6665h4.71484l3.65527,14.31445h.06836V742.6665h3.34766v23.91406H764.7762l-4.50879-17.457h-.06836v17.457h-3.34863Z"/><path class="cls-3" d="M773.48713,742.6665h5.73926a5.474,5.474,0,0,1,4.20215,1.50293,6.24657,6.24657,0,0,1,1.40137,4.40722V760.6704a6.24331,6.24331,0,0,1-1.40137,4.40723,5.474,5.474,0,0,1-4.20215,1.50293h-5.73926Zm5.6709,20.498a1.816,1.816,0,0,0,1.418-.54687,2.6091,2.6091,0,0,0,.49512-1.77637V748.40575a2.60909,2.60909,0,0,0-.49512-1.77636,1.816,1.816,0,0,0-1.418-.54688H777.245v17.082Z"/><path class="cls-3" d="M796.92268,742.6665h5.73926a5.474,5.474,0,0,1,4.20215,1.50293,6.24657,6.24657,0,0,1,1.40137,4.40722V760.6704a6.24331,6.24331,0,0,1-1.40137,4.40723,5.474,5.474,0,0,1-4.20215,1.50293h-5.73926Zm5.6709,20.498a1.816,1.816,0,0,0,1.418-.54687,2.6091,2.6091,0,0,0,.49512-1.77637V748.40575a2.60909,2.60909,0,0,0-.49512-1.77636,1.816,1.816,0,0,0-1.418-.54688h-1.91309v17.082Z"/><path class="cls-3" d="M814.03792,765.35107a6.25786,6.25786,0,0,1-1.46973-4.44141V748.3374a6.25786,6.25786,0,0,1,1.46973-4.44141,6.49507,6.49507,0,0,1,8.47168,0,6.2579,6.2579,0,0,1,1.46972,4.44141v12.57226a6.2579,6.2579,0,0,1-1.46972,4.44141,6.49507,6.49507,0,0,1-8.47168,0Zm6.18359-4.20215V748.09814q0-2.35693-1.94727-2.35645-1.94823,0-1.94726,2.35645v13.05078q0,2.35693,1.94726,2.35742Q820.221,763.50634,820.22151,761.14892Z"/><path class="cls-3" d="M829.75276,765.35107a6.25791,6.25791,0,0,1-1.46973-4.44141V748.3374a6.25791,6.25791,0,0,1,1.46973-4.44141,6.49507,6.49507,0,0,1,8.47168,0,6.25791,6.25791,0,0,1,1.46973,4.44141v12.57226a6.25791,6.25791,0,0,1-1.46973,4.44141,6.49507,6.49507,0,0,1-8.47168,0Zm6.18359-4.20215V748.09814q0-2.35693-1.94726-2.35645-1.94825,0-1.94727,2.35645v13.05078q0,2.35693,1.94727,2.35742Q835.93586,763.50634,835.93635,761.14892Z"/><path class="cls-3" d="M844.27131,742.6665h5.56836a4.80588,4.80588,0,0,1,5.56934,5.5v1.46972q0,3.72365-2.46,4.71387v.06836a2.93463,2.93463,0,0,1,1.92969,1.67383,8.42818,8.42818,0,0,1,.56445,3.38281v4.20117a15.96307,15.96307,0,0,0,.06836,1.65723,4.15214,4.15214,0,0,0,.34082,1.24707H852.0262a5.42656,5.42656,0,0,1-.27246-1.09277,16.37229,16.37229,0,0,1-.06836-1.84571V759.27a3.706,3.706,0,0,0-.53028-2.28906,2.24,2.24,0,0,0-1.82714-.64941h-1.29883v10.249h-3.75782Zm5.125,10.249a2.25179,2.25179,0,0,0,1.69043-.58105,2.74217,2.74217,0,0,0,.56446-1.94727v-1.84473a3.03518,3.03518,0,0,0-.46192-1.8789,1.74242,1.74242,0,0,0-1.45117-.58106h-1.709v6.833Z"/><path class="cls-3" d="M860.84065,765.36767a6.43556,6.43556,0,0,1-1.40039-4.458v-1.36621H862.993v1.63965q0,2.32325,1.94727,2.32324a1.83282,1.83282,0,0,0,1.45215-.56445,2.744,2.744,0,0,0,.49512-1.82715,5.06862,5.06862,0,0,0-.6836-2.64746,12.63316,12.63316,0,0,0-2.52832-2.751,15.13158,15.13158,0,0,1-3.24512-3.70605,7.55556,7.55556,0,0,1-.92187-3.74121,6.23224,6.23224,0,0,1,1.43457-4.38965,5.39123,5.39123,0,0,1,4.168-1.55469,5.18023,5.18023,0,0,1,4.082,1.55469,6.48956,6.48956,0,0,1,1.38379,4.458v.99121h-3.55274v-1.23047a2.74958,2.74958,0,0,0-.47851-1.793,1.73465,1.73465,0,0,0-1.40039-.56348q-1.87939,0-1.87891,2.28809a4.51271,4.51271,0,0,0,.7002,2.42578,13.3792,13.3792,0,0,0,2.54492,2.7334,14.04822,14.04822,0,0,1,3.24512,3.72363,8.25893,8.25893,0,0,1,.88867,3.92871,6.41063,6.41063,0,0,1-1.45215,4.50977,5.45878,5.45878,0,0,1-4.21875,1.57129A5.27716,5.27716,0,0,1,860.84065,765.36767Z"/></svg>